REM DIRINDEX 1\2,1\3
REM DIRNAME cjc133,folder01,folder02
TITLE ""
FILE "DISC1Track33.mp3" MP3
  TRACK 01 AUDIO
    TITLE "0:"
    INDEX 01 00:00:00
  TRACK 02 AUDIO
    TITLE "3:cjc133_1474"
    INDEX 01 00:00:17
  TRACK 03 AUDIO
    TITLE "0:"
    INDEX 01 00:01:56
  TRACK 04 AUDIO
    TITLE "2:cjc133_1475"
    INDEX 01 00:02:32
  TRACK 05 AUDIO
    TITLE "2:cjc133_1476"
    INDEX 01 00:04:25
  TRACK 06 AUDIO
    TITLE "2:cjc133_1477"
    INDEX 01 00:06:55
  TRACK 07 AUDIO
    TITLE "0:"
    INDEX 01 00:08:17
  TRACK 08 AUDIO
    TITLE "2:cjc133_1478"
    INDEX 01 00:08:72
  TRACK 09 AUDIO
    TITLE "2:cjc133_1479"
    INDEX 01 00:10:08
  TRACK 10 AUDIO
    TITLE "2:cjc133_1480"
    INDEX 01 00:12:34
  TRACK 11 AUDIO
    TITLE "0:"
    INDEX 01 00:13:65
  TRACK 12 AUDIO
    TITLE "2:cjc133_1481"
    INDEX 01 00:14:43
  TRACK 13 AUDIO
    TITLE "2:cjc133_1482"
    INDEX 01 00:15:48
  TRACK 14 AUDIO
    TITLE "2:cjc133_1483"
    INDEX 01 00:18:07
  TRACK 15 AUDIO
    TITLE "0:"
    INDEX 01 00:19:46
  TRACK 16 AUDIO
    TITLE "2:cjc133_1484"
    INDEX 01 00:20:24
  TRACK 17 AUDIO
    TITLE "2:cjc133_1485"
    INDEX 01 00:21:49
  TRACK 18 AUDIO
    TITLE "2:cjc133_1486"
    INDEX 01 00:24:14
  TRACK 19 AUDIO
    TITLE "0:"
    INDEX 01 00:25:58
  TRACK 20 AUDIO
    TITLE "2:cjc133_1487"
    INDEX 01 00:26:34
  TRACK 21 AUDIO
    TITLE "2:cjc133_1488"
    INDEX 01 00:28:00
  TRACK 22 AUDIO
    TITLE "2:cjc133_1489"
    INDEX 01 00:30:61
  TRACK 23 AUDIO
    TITLE "0:"
    INDEX 01 00:32:52
  TRACK 24 AUDIO
    TITLE "2:cjc133_1490"
    INDEX 01 00:33:28
  TRACK 25 AUDIO
    TITLE "2:cjc133_1491"
    INDEX 01 00:35:37
  TRACK 26 AUDIO
    TITLE "2:cjc133_1492"
    INDEX 01 00:38:65
  TRACK 27 AUDIO
    TITLE "0:"
    INDEX 01 00:41:24
  TRACK 28 AUDIO
    TITLE "2:cjc133_1493"
    INDEX 01 00:42:04
  TRACK 29 AUDIO
    TITLE "2:cjc133_1494"
    INDEX 01 00:43:09
  TRACK 30 AUDIO
    TITLE "2:cjc133_1495"
    INDEX 01 00:46:04
  TRACK 31 AUDIO
    TITLE "0:"
    INDEX 01 00:48:10
  TRACK 32 AUDIO
    TITLE "2:cjc133_1496"
    INDEX 01 00:48:59
  TRACK 33 AUDIO
    TITLE "2:cjc133_1497"
    INDEX 01 00:50:05
  TRACK 34 AUDIO
    TITLE "2:cjc133_1498"
    INDEX 01 00:53:11
  TRACK 35 AUDIO
    TITLE "0:"
    INDEX 01 00:55:22
  TRACK 36 AUDIO
    TITLE "2:cjc133_1499"
    INDEX 01 00:55:73
  TRACK 37 AUDIO
    TITLE "2:cjc133_1500"
    INDEX 01 00:57:39
  TRACK 38 AUDIO
    TITLE "2:cjc133_1501"
    INDEX 01 01:00:49
  TRACK 39 AUDIO
    TITLE "0:"
    INDEX 01 01:02:65
  TRACK 40 AUDIO
    TITLE "2:cjc133_1502"
    INDEX 01 01:03:41
  TRACK 41 AUDIO
    TITLE "2:cjc133_1503"
    INDEX 01 01:05:05
  TRACK 42 AUDIO
    TITLE "2:cjc133_1504"
    INDEX 01 01:08:21
  TRACK 43 AUDIO
    TITLE "0:"
    INDEX 01 01:10:47
  TRACK 44 AUDIO
    TITLE "2:cjc133_1505"
    INDEX 01 01:11:21
  TRACK 45 AUDIO
    TITLE "2:cjc133_1506"
    INDEX 01 01:13:53
  TRACK 46 AUDIO
    TITLE "2:cjc133_1507"
    INDEX 01 01:17:43
  TRACK 47 AUDIO
    TITLE "0:"
    INDEX 01 01:20:48
  TRACK 48 AUDIO
    TITLE "2:cjc133_1508"
    INDEX 01 01:21:21
  TRACK 49 AUDIO
    TITLE "2:cjc133_1509"
    INDEX 01 01:24:10
  TRACK 50 AUDIO
    TITLE "2:cjc133_1510"
    INDEX 01 01:27:08
  TRACK 51 AUDIO
    TITLE "0:"
    INDEX 01 01:29:19
  TRACK 52 AUDIO
    TITLE "2:cjc133_1511"
    INDEX 01 01:29:62
  TRACK 53 AUDIO
    TITLE "2:cjc133_1512"
    INDEX 01 01:31:12
  TRACK 54 AUDIO
    TITLE "2:cjc133_1513"
    INDEX 01 01:34:08
  TRACK 55 AUDIO
    TITLE "0:"
    INDEX 01 01:36:13
  TRACK 56 AUDIO
    TITLE "2:cjc133_1514"
    INDEX 01 01:36:60
  TRACK 57 AUDIO
    TITLE "2:cjc133_1515"
    INDEX 01 01:38:10
  TRACK 58 AUDIO
    TITLE "2:cjc133_1516"
    INDEX 01 01:41:59
  TRACK 59 AUDIO
    TITLE "0:"
    INDEX 01 01:44:44
  TRACK 60 AUDIO
    TITLE "2:cjc133_1517"
    INDEX 01 01:45:14
  TRACK 61 AUDIO
    TITLE "2:cjc133_1518"
    INDEX 01 01:46:23
  TRACK 62 AUDIO
    TITLE "2:cjc133_1519"
    INDEX 01 01:49:59
  TRACK 63 AUDIO
    TITLE "0:"
    INDEX 01 01:52:32
